<mxfile host="app.diagrams.net" modified="2023-06-05T00:41:02.115Z" agent="Mozilla/5.0 (Windows NT 10.0; Win64; x64) AppleWebKit/537.36 (KHTML, like Gecko) Chrome/114.0.0.0 Safari/537.36" version="21.3.7" etag="fRBuR4lC86zJt-pPMI9O" type="github">
  <diagram name="第 1 页" id="_Jx6ux68OCWTsPAAiIP-">
    <mxGraphModel>
      <root>
        <mxCell id="0" />
        <mxCell id="1" parent="0" />
      </root>
    </mxGraphModel>
  </diagram>
</mxfile>
